<svg width="71" height="70" viewBox="0 0 71 70" fill="none" xmlns="http://www.w3.org/2000/svg">
<path fill-rule="evenodd" clip-rule="evenodd" d="M24.676 9.79C25.336 9.71667 25.556 10.01 25.666 10.23C25.006 10.2667 24.4193 10.1933 24.0527 9.93667C24.1993 9.9 24.4193 9.82667 24.676 9.79ZM35.016 0C41.1027 0 46.6027 2.45667 50.5627 6.45333C54.5593 10.4133 57.016 15.9133 57.016 22C57.016 28.0867 54.5593 33.5867 50.5627 37.5467C46.6027 41.5433 41.1027 44 35.016 44C28.9293 44 23.4293 41.5433 19.4693 37.5467C15.4727 33.5867 13.016 28.0867 13.016 22C13.016 19.5067 13.456 17.1233 14.226 14.8867C14.446 14.3 14.666 13.75 14.886 13.2C14.9227 13.1267 14.996 12.98 15.1793 13.1633C15.4727 13.4567 15.876 13.4933 16.206 13.2733C15.986 13.2367 15.6927 13.09 15.4727 12.87C15.216 12.65 15.106 12.3567 15.0693 12.1367C15.0327 12.21 13.786 11.77 13.9327 10.5233C15.2527 11.3667 15.5093 10.12 16.6093 10.01C15.4727 9.57 15.656 7.62667 15.656 7.62667C15.656 7.62667 16.4993 8.72667 17.7827 8.8C17.2693 8.06667 17.966 7.44333 17.966 7.44333C17.966 7.44333 18.2227 7.81 18.626 8.06667C19.3227 8.47 20.4227 8.50667 21.486 8.50667C21.816 8.50667 22.1827 8.47 22.5127 8.47H22.696C23.2087 8.43315 23.7233 8.43315 24.236 8.47C24.6859 8.49913 25.1181 8.65607 25.4818 8.92237C25.8455 9.18868 26.1257 9.55328 26.2893 9.97333C26.2893 9.97333 26.2893 10.0467 26.326 10.12L27.206 10.01C27.7927 9.97333 28.416 9.9 29.0027 9.86333C29.846 9.82667 30.506 10.1567 30.9827 10.5967C31.496 11.0367 31.6793 11.6967 31.7527 12.0267C31.3493 11.8067 29.956 11.7333 28.746 12.1733C27.206 12.76 26.1793 13.8233 25.9593 14.08C25.5927 14.52 25.2627 14.9233 24.9693 15.4C24.7493 15.7667 24.5293 16.1333 24.346 16.5367C23.5438 18.1318 23.1055 19.885 23.0627 21.67V21.9267C23.0627 25.2633 24.4193 28.27 26.5827 30.4333C27.699 31.5513 29.0251 32.4378 30.4849 33.0418C31.9447 33.6459 33.5095 33.9556 35.0893 33.9533C38.426 33.9533 41.4327 32.5967 43.596 30.4333C44.7139 29.317 45.6002 27.9908 46.2043 26.531C46.8084 25.0712 47.1182 23.5065 47.116 21.9267C47.116 18.59 45.7593 15.5833 43.596 13.42C42.4797 12.3021 41.1535 11.4157 39.6937 10.8116C38.2339 10.2076 36.6692 9.89778 35.0893 9.9C34.0627 9.9 33.0727 10.01 32.1193 10.2667C32.046 10.2667 32.0093 10.3033 31.936 10.3033C31.6287 9.8944 31.2258 9.56707 30.7627 9.35C30.506 9.20333 30.3593 9.16667 30.176 9.09333C29.8827 9.02 29.5527 8.94667 29.2593 8.94667C29.3693 8.91 29.4427 8.87333 29.5527 8.83667C31.3127 8.10333 33.1827 7.73667 35.0893 7.73667C37.0327 7.73667 38.866 8.10333 40.626 8.83667C42.3127 9.53333 43.816 10.56 45.136 11.88C46.456 13.2 47.4827 14.7033 48.1793 16.39C48.9127 18.15 49.2793 19.9833 49.2793 21.9267C49.2793 23.87 48.9127 25.7033 48.1793 27.4633C47.4827 29.15 46.456 30.6533 45.136 31.9733C43.816 33.2933 42.3127 34.32 40.626 35.0167C38.866 35.75 36.996 36.1167 35.0893 36.1167C33.146 36.1167 31.3127 35.75 29.5527 35.0167C29.296 34.9433 29.0393 34.7967 28.7827 34.6867C28.4893 34.5767 27.866 34.2833 27.6827 34.76C27.4993 35.2 27.9027 35.5667 28.196 35.7133C28.4893 35.86 28.7827 36.0067 29.076 36.1167C30.946 36.9233 32.9627 37.3267 35.0527 37.3267C37.1427 37.3267 39.1227 36.9233 41.0293 36.1167C42.8627 35.3467 44.476 34.2467 45.906 32.8167C47.336 31.4233 48.436 29.7733 49.206 27.94C50.0127 26.0333 50.416 24.0533 50.416 21.9633C50.416 19.8733 50.0127 17.8933 49.206 15.9867C48.436 14.1533 47.336 12.54 45.906 11.11C44.5127 9.68 42.8627 8.58 41.0293 7.81C39.1398 7.00564 37.1063 6.59397 35.0527 6.6C32.9627 6.6 30.9827 7.00333 29.076 7.81C28.2693 8.14 27.4993 8.54333 26.766 9.02L26.6927 8.94667C26.4823 8.65783 26.2214 8.4094 25.9227 8.21333C26.7704 7.65771 27.6662 7.17913 28.5993 6.78333C30.6316 5.93319 32.8131 5.4969 35.016 5.5C37.2527 5.5 39.416 5.94 41.4327 6.78333C43.3877 7.63022 45.1663 8.83668 46.676 10.34C48.216 11.8433 49.3893 13.6033 50.2327 15.5833C51.0828 17.6156 51.5191 19.7971 51.516 22C51.516 24.2367 51.076 26.4 50.2327 28.4167C49.3859 30.3717 48.1794 32.1504 46.676 33.66C45.1727 35.2 43.4127 36.3733 41.4327 37.2167C39.4004 38.0668 37.2189 38.5031 35.016 38.5C32.7793 38.5 30.616 38.06 28.7093 37.1433C28.3427 36.9967 27.976 36.85 27.646 36.6667C27.3893 36.5567 26.8393 36.3 26.6193 36.7033C26.3993 37.1067 26.8393 37.5467 27.096 37.6933C27.4627 37.8767 27.866 38.06 28.2693 38.2433C30.4517 39.1613 32.7951 39.635 35.1627 39.6367C37.546 39.6367 39.8927 39.16 42.056 38.2433C44.1527 37.3591 46.0579 36.0765 47.666 34.4667C49.2759 32.8586 50.5585 30.9534 51.4427 28.8567C52.3606 26.6743 52.8343 24.3309 52.836 21.9633C52.836 19.58 52.3593 17.2333 51.4427 15.07C50.5586 12.9732 49.276 11.068 47.666 9.46C46.0579 7.85014 44.1527 6.56755 42.056 5.68333C39.8737 4.76531 37.5302 4.29163 35.1627 4.29C32.7793 4.29 30.4327 4.76667 28.2693 5.68333C27.0227 6.19667 25.8493 6.85667 24.7493 7.66333C24.4193 7.59 23.8693 7.51667 23.0627 7.55333C26.437 4.70636 30.7111 3.14741 35.126 3.15333C45.5027 3.15333 53.936 11.5867 53.936 21.9633C53.936 27.17 51.8093 31.8633 48.3993 35.2733C44.9893 38.6833 40.296 40.81 35.0893 40.81C32.0093 40.81 29.076 40.0767 26.4727 38.72C26.1793 38.5733 25.5927 38.39 25.3727 38.83C25.1527 39.2333 25.556 39.5633 25.8127 39.71C26.2893 39.9667 26.766 40.1867 27.2793 40.4067C29.736 41.47 32.3393 41.9833 35.0527 41.9833C37.7293 41.9833 40.3693 41.4333 42.826 40.4067C45.1946 39.3941 47.3477 37.938 49.1693 36.1167C51.0027 34.2833 52.4693 32.1567 53.4593 29.7733C54.5227 27.3167 55.036 24.6767 55.036 22C55.036 19.3233 54.486 16.6833 53.4593 14.2267C52.4468 11.8581 50.9906 9.70497 49.1693 7.88333C47.336 6.05 45.2093 4.58333 42.826 3.59333C40.3693 2.53 37.766 2.01667 35.0527 2.01667C32.376 2.01667 29.736 2.56667 27.2793 3.59333C24.9693 4.54667 22.916 5.94 21.1193 7.66333C19.5427 7.62667 18.9193 7.22333 18.846 7.15C18.9193 7.07667 18.9927 6.96667 19.066 6.89333C23.0627 2.64 28.7093 0 35.016 0ZM35.016 15.9867L36.4093 20.2033H40.846L37.2527 22.8433L38.6093 27.0967L35.016 24.4933L31.4227 27.0967L32.7793 22.8433L29.186 20.2033H33.6227L35.016 15.9867Z" fill="#9B2226"/>
<path d="M2.81 68.97H0.1C0.0333333 68.97 0 68.93 0 68.85L0.05 52.36C0.05 52.2933 0.08 52.26 0.14 52.26H4.99C5.85667 52.26 6.65333 52.4733 7.38 52.9C8.10667 53.3267 8.68667 53.8933 9.12 54.6C9.55333 55.3133 9.77 56.12 9.77 57.02C9.77 57.6067 9.68 58.1367 9.5 58.61C9.32667 59.0833 9.12 59.4833 8.88 59.81C8.64 60.1367 8.42333 60.38 8.23 60.54C9.09667 61.5 9.53 62.63 9.53 63.93L9.55 68.85C9.55 68.93 9.51 68.97 9.43 68.97H6.72C6.65333 68.97 6.62 68.9467 6.62 68.9V63.93C6.62 63.35 6.41667 62.85 6.01 62.43C5.60333 62.0033 5.10333 61.79 4.51 61.79H2.93L2.9 68.85C2.9 68.93 2.87 68.97 2.81 68.97ZM2.93 55.14V58.91H4.99C5.49 58.91 5.93 58.7267 6.31 58.36C6.69667 57.9933 6.89 57.5467 6.89 57.02C6.89 56.5067 6.7 56.0667 6.32 55.7C5.94667 55.3267 5.50333 55.14 4.99 55.14H2.93ZM15.89 69.21C15.0233 69.21 14.2333 68.99 13.52 68.55C12.8133 68.11 12.2433 67.5267 11.81 66.8C11.3767 66.0667 11.16 65.26 11.16 64.38L11.18 56.78C11.18 55.9 11.3933 55.1 11.82 54.38C12.2467 53.66 12.82 53.0833 13.54 52.65C14.26 52.2167 15.0433 52 15.89 52C16.75 52 17.5333 52.2167 18.24 52.65C18.9467 53.0833 19.51 53.66 19.93 54.38C20.3567 55.1 20.57 55.9 20.57 56.78L20.59 64.38C20.59 65.26 20.38 66.0667 19.96 66.8C19.5333 67.5267 18.9633 68.11 18.25 68.55C17.5367 68.99 16.75 69.21 15.89 69.21ZM15.89 66.3C16.37 66.3 16.79 66.1067 17.15 65.72C17.51 65.3267 17.69 64.88 17.69 64.38L17.66 56.78C17.66 56.2467 17.4933 55.7967 17.16 55.43C16.8267 55.0633 16.4033 54.88 15.89 54.88C15.39 54.88 14.9667 55.06 14.62 55.42C14.2667 55.78 14.09 56.2333 14.09 56.78V64.38C14.09 64.9133 14.2667 65.3667 14.62 65.74C14.9667 66.1133 15.39 66.3 15.89 66.3ZM24.5 68.97H27.22C27.28 68.97 27.31 68.93 27.31 68.85L24.41 55.17H21.29C21.21 55.17 21.17 55.13 21.17 55.05L21.19 52.36C21.19 52.2933 21.2233 52.26 21.29 52.26H30.41C30.49 52.26 30.53 52.2933 30.53 52.36V55.05C30.53 55.13 30.4967 55.17 30.43 55.17H27.29L24.41 68.85C24.41 68.93 24.44 68.97 24.5 68.97ZM30.02 68.85L33 52.36C33.0133 52.2933 33.0533 52.26 33.12 52.26H36.6C36.6667 52.26 36.7067 52.2933 36.72 52.36L39.58 68.85C39.5933 68.93 39.56 68.97 39.48 68.97H36.82C36.7533 68.97 36.7133 68.93 36.7 68.85L36.43 67.1H33.17L32.9 68.85C32.8867 68.93 32.8467 68.97 32.78 68.97H30.12C30.0533 68.97 30.02 68.93 30.02 68.85ZM34.73 57.78L33.65 64.53H35.95L34.97 57.78L34.82 56.9L34.73 57.78ZM45.05 68.97H42.34C42.34 68.97 42.24 68.93 42.24 68.85L45.12 55.17H48.24C48.32 55.17 48.36 55.13 48.36 55.05L48.34 52.36C48.34 52.2933 48.3067 52.26 48.24 52.26H39.12C39.04 52.26 39 52.2933 39 52.36V55.05C39 55.13 39.0333 55.17 39.1 55.17H42.24L45.14 68.85C45.14 68.93 45.11 68.97 45.05 68.97ZM53.71 69.21C54.5767 69.21 55.3667 68.99 56.08 68.55C56.7933 68.11 57.3633 67.5267 57.79 66.8C58.2233 66.0667 58.44 65.26 58.44 64.38L58.42 56.78C58.42 55.9 58.2067 55.1 57.78 54.38C57.36 53.66 56.79 53.0833 56.07 52.65C55.35 52.2167 54.5633 52 53.71 52C52.85 52 52.0667 52.2167 51.36 52.65C50.66 53.0833 50.0967 53.66 49.67 54.38C49.2433 55.1 49.03 55.9 49.03 56.78L49.01 64.38C49.01 65.26 49.2233 66.0667 49.65 66.8C50.07 67.5267 50.6367 68.11 51.35 68.55C52.0633 68.99 52.85 69.21 53.71 69.21ZM53.71 66.3C53.23 66.3 52.81 66.1067 52.45 65.72C52.09 65.3267 51.91 64.88 51.91 64.38L51.94 56.78C51.94 56.2467 52.1067 55.7967 52.44 55.43C52.78 55.0633 53.2033 54.88 53.71 54.88C54.21 54.88 54.6367 55.06 54.99 55.42C55.3367 55.78 55.51 56.2333 55.51 56.78V64.38C55.51 64.9133 55.3367 65.3667 54.99 65.74C54.6367 66.1133 54.21 66.3 53.71 66.3ZM67.22 68.97H69.93C69.9967 68.97 70.03 68.93 70.03 68.85L69.98 52.36C69.98 52.2933 69.9467 52.26 69.88 52.26H65.03C64.17 52.26 63.3767 52.4733 62.65 52.9C61.9167 53.3267 61.3367 53.8933 60.91 54.6C60.4767 55.3133 60.26 56.12 60.26 57.02C60.26 57.6067 60.3467 58.1367 60.52 58.61C60.7 59.0833 60.91 59.4833 61.15 59.81C61.39 60.1367 61.6033 60.38 61.79 60.54C60.93 61.5 60.5 62.63 60.5 63.93L60.47 68.85C60.47 68.93 60.51 68.97 60.59 68.97H63.31C63.37 68.97 63.4 68.9467 63.4 68.9V63.93C63.4 63.35 63.6033 62.85 64.01 62.43C64.4233 62.0033 64.9233 61.79 65.51 61.79H67.1L67.12 68.85C67.12 68.93 67.1533 68.97 67.22 68.97ZM67.1 55.14V58.91H65.03C64.5367 58.91 64.0967 58.7267 63.71 58.36C63.33 57.9933 63.14 57.5467 63.14 57.02C63.14 56.5067 63.3267 56.0667 63.7 55.7C64.08 55.3267 64.5233 55.14 65.03 55.14H67.1Z" fill="#005F73"/>
</svg>
