<svg width="107" height="36" viewBox="0 0 107 36" fill="none" xmlns="http://www.w3.org/2000/svg">
<path fill-rule="evenodd" clip-rule="evenodd" d="M7.42 10.23C7.84 10.1833 7.98 10.37 8.05 10.51C7.63 10.5333 7.25667 10.4867 7.02333 10.3233C7.11667 10.3 7.25667 10.2533 7.42 10.23ZM14 4C17.8733 4 21.3733 5.56333 23.8933 8.10667C26.4367 10.6267 28 14.1267 28 18C28 21.8733 26.4367 25.3733 23.8933 27.8933C21.3733 30.4367 17.8733 32 14 32C10.1267 32 6.62667 30.4367 4.10667 27.8933C1.56333 25.3733 0 21.8733 0 18C0 16.4133 0.28 14.8967 0.77 13.4733C0.91 13.1 1.05 12.75 1.19 12.4C1.21333 12.3533 1.26 12.26 1.37667 12.3767C1.56333 12.5633 1.82 12.5867 2.03 12.4467C1.89 12.4233 1.70333 12.33 1.56333 12.19C1.4 12.05 1.33 11.8633 1.30667 11.7233C1.28333 11.77 0.49 11.49 0.583333 10.6967C1.42333 11.2333 1.58667 10.44 2.28667 10.37C1.56333 10.09 1.68 8.85333 1.68 8.85333C1.68 8.85333 2.21667 9.55333 3.03333 9.6C2.70667 9.13333 3.15 8.73667 3.15 8.73667C3.15 8.73667 3.31333 8.97 3.57 9.13333C4.01333 9.39 4.71333 9.41333 5.39 9.41333C5.6 9.41333 5.83333 9.39 6.04333 9.39H6.16C6.48625 9.36655 6.81376 9.36655 7.14 9.39C7.42628 9.40854 7.70131 9.50841 7.93278 9.67787C8.16425 9.84734 8.34253 10.0794 8.44667 10.3467C8.44667 10.3467 8.44667 10.3933 8.47 10.44L9.03 10.37C9.40333 10.3467 9.8 10.3 10.1733 10.2767C10.71 10.2533 11.13 10.4633 11.4333 10.7433C11.76 11.0233 11.8767 11.4433 11.9233 11.6533C11.6667 11.5133 10.78 11.4667 10.01 11.7467C9.03 12.12 8.37667 12.7967 8.23667 12.96C8.00333 13.24 7.79333 13.4967 7.60667 13.8C7.46667 14.0333 7.32667 14.2667 7.21 14.5233C6.69951 15.5384 6.42059 16.6541 6.39333 17.79V17.9533C6.39333 20.0767 7.25667 21.99 8.63333 23.3667C9.34371 24.0781 10.1876 24.6422 11.1166 25.0266C12.0456 25.411 13.0413 25.6081 14.0467 25.6067C16.17 25.6067 18.0833 24.7433 19.46 23.3667C20.1714 22.6562 20.7354 21.8123 21.1198 20.8834C21.5042 19.9544 21.7014 18.9587 21.7 17.9533C21.7 15.83 20.8367 13.9167 19.46 12.54C18.7496 11.8286 17.9057 11.2645 16.9767 10.8801C16.0478 10.4957 15.052 10.2986 14.0467 10.3C13.3933 10.3 12.7633 10.37 12.1567 10.5333C12.11 10.5333 12.0867 10.5567 12.04 10.5567C11.8445 10.2964 11.5881 10.0881 11.2933 9.95C11.13 9.85667 11.0367 9.83333 10.92 9.78667C10.7333 9.74 10.5233 9.69333 10.3367 9.69333C10.4067 9.67 10.4533 9.64667 10.5233 9.62333C11.6433 9.15667 12.8333 8.92333 14.0467 8.92333C15.2833 8.92333 16.45 9.15667 17.57 9.62333C18.6433 10.0667 19.6 10.72 20.44 11.56C21.28 12.4 21.9333 13.3567 22.3767 14.43C22.8433 15.55 23.0767 16.7167 23.0767 17.9533C23.0767 19.19 22.8433 20.3567 22.3767 21.4767C21.9333 22.55 21.28 23.5067 20.44 24.3467C19.6 25.1867 18.6433 25.84 17.57 26.2833C16.45 26.75 15.26 26.9833 14.0467 26.9833C12.81 26.9833 11.6433 26.75 10.5233 26.2833C10.36 26.2367 10.1967 26.1433 10.0333 26.0733C9.84667 26.0033 9.45 25.8167 9.33333 26.12C9.21667 26.4 9.47333 26.6333 9.66 26.7267C9.84667 26.82 10.0333 26.9133 10.22 26.9833C11.41 27.4967 12.6933 27.7533 14.0233 27.7533C15.3533 27.7533 16.6133 27.4967 17.8267 26.9833C18.9933 26.4933 20.02 25.7933 20.93 24.8833C21.84 23.9967 22.54 22.9467 23.03 21.78C23.5433 20.5667 23.8 19.3067 23.8 17.9767C23.8 16.6467 23.5433 15.3867 23.03 14.1733C22.54 13.0067 21.84 11.98 20.93 11.07C20.0433 10.16 18.9933 9.46 17.8267 8.97C16.6242 8.45814 15.3302 8.19616 14.0233 8.2C12.6933 8.2 11.4333 8.45667 10.22 8.97C9.70667 9.18 9.21667 9.43667 8.75 9.74L8.70333 9.69333C8.56945 9.50953 8.40345 9.35143 8.21333 9.22667C8.7528 8.87309 9.32286 8.56854 9.91667 8.31667C11.2099 7.77567 12.5981 7.49803 14 7.5C15.4233 7.5 16.8 7.78 18.0833 8.31667C19.3274 8.8556 20.4593 9.62334 21.42 10.58C22.4 11.5367 23.1467 12.6567 23.6833 13.9167C24.2243 15.2099 24.502 16.5981 24.5 18C24.5 19.4233 24.22 20.8 23.6833 22.0833C23.1445 23.3275 22.3767 24.4593 21.42 25.42C20.4633 26.4 19.3433 27.1467 18.0833 27.6833C16.7901 28.2243 15.4019 28.502 14 28.5C12.5767 28.5 11.2 28.22 9.98667 27.6367C9.75333 27.5433 9.52 27.45 9.31 27.3333C9.14667 27.2633 8.79667 27.1 8.65667 27.3567C8.51667 27.6133 8.79667 27.8933 8.96 27.9867C9.19333 28.1033 9.45 28.22 9.70667 28.3367C11.0954 28.9208 12.5867 29.2223 14.0933 29.2233C15.61 29.2233 17.1033 28.92 18.48 28.3367C19.8142 27.774 21.0266 26.9578 22.05 25.9333C23.0745 24.91 23.8907 23.6976 24.4533 22.3633C25.0375 20.9746 25.3389 19.4833 25.34 17.9767C25.34 16.46 25.0367 14.9667 24.4533 13.59C23.8908 12.2557 23.0746 11.0433 22.05 10.02C21.0266 8.99554 19.8142 8.17935 18.48 7.61667C17.0913 7.03247 15.6 6.73104 14.0933 6.73C12.5767 6.73 11.0833 7.03333 9.70667 7.61667C8.91333 7.94333 8.16667 8.36333 7.46667 8.87667C7.25667 8.83 6.90667 8.78333 6.39333 8.80667C8.54063 6.99496 11.2605 6.0029 14.07 6.00667C20.6733 6.00667 26.04 11.3733 26.04 17.9767C26.04 21.29 24.6867 24.2767 22.5167 26.4467C20.3467 28.6167 17.36 29.97 14.0467 29.97C12.0867 29.97 10.22 29.5033 8.56333 28.64C8.37667 28.5467 8.00333 28.43 7.86333 28.71C7.72333 28.9667 7.98 29.1767 8.14333 29.27C8.44667 29.4333 8.75 29.5733 9.07667 29.7133C10.64 30.39 12.2967 30.7167 14.0233 30.7167C15.7267 30.7167 17.4067 30.3667 18.97 29.7133C20.4773 29.069 21.8474 28.1423 23.0067 26.9833C24.1733 25.8167 25.1067 24.4633 25.7367 22.9467C26.4133 21.3833 26.74 19.7033 26.74 18C26.74 16.2967 26.39 14.6167 25.7367 13.0533C25.0923 11.546 24.1657 10.1759 23.0067 9.01667C21.84 7.85 20.4867 6.91667 18.97 6.28667C17.4067 5.61 15.75 5.28333 14.0233 5.28333C12.32 5.28333 10.64 5.63333 9.07667 6.28667C7.60667 6.89333 6.3 7.78 5.15667 8.87667C4.15333 8.85333 3.75667 8.59667 3.71 8.55C3.75667 8.50333 3.80333 8.43333 3.85 8.38667C6.39333 5.68 9.98667 4 14 4ZM14 14.1733L14.8867 16.8567H17.71L15.4233 18.5367L16.2867 21.2433L14 19.5867L11.7133 21.2433L12.5767 18.5367L10.29 16.8567H13.1133L14 14.1733Z" fill="#005F73"/>
<path d="M38.81 26.486H36.1C36.0333 26.486 36 26.446 36 26.366L36.05 9.876C36.05 9.80933 36.08 9.776 36.14 9.776H40.99C41.8567 9.776 42.6533 9.98933 43.38 10.416C44.1067 10.8427 44.6867 11.4093 45.12 12.116C45.5533 12.8293 45.77 13.636 45.77 14.536C45.77 15.1227 45.68 15.6527 45.5 16.126C45.3267 16.5993 45.12 16.9993 44.88 17.326C44.64 17.6527 44.4233 17.896 44.23 18.056C45.0967 19.016 45.53 20.146 45.53 21.446L45.55 26.366C45.55 26.446 45.51 26.486 45.43 26.486H42.72C42.6533 26.486 42.62 26.4627 42.62 26.416V21.446C42.62 20.866 42.4167 20.366 42.01 19.946C41.6033 19.5193 41.1033 19.306 40.51 19.306H38.93L38.9 26.366C38.9 26.446 38.87 26.486 38.81 26.486ZM38.93 12.656V16.426H40.99C41.49 16.426 41.93 16.2427 42.31 15.876C42.6967 15.5093 42.89 15.0627 42.89 14.536C42.89 14.0227 42.7 13.5827 42.32 13.216C41.9467 12.8427 41.5033 12.656 40.99 12.656H38.93ZM51.89 26.726C51.0233 26.726 50.2333 26.506 49.52 26.066C48.8133 25.626 48.2433 25.0427 47.81 24.316C47.3767 23.5827 47.16 22.776 47.16 21.896L47.18 14.296C47.18 13.416 47.3933 12.616 47.82 11.896C48.2467 11.176 48.82 10.5993 49.54 10.166C50.26 9.73267 51.0433 9.516 51.89 9.516C52.75 9.516 53.5333 9.73267 54.24 10.166C54.9467 10.5993 55.51 11.176 55.93 11.896C56.3567 12.616 56.57 13.416 56.57 14.296L56.59 21.896C56.59 22.776 56.38 23.5827 55.96 24.316C55.5333 25.0427 54.9633 25.626 54.25 26.066C53.5367 26.506 52.75 26.726 51.89 26.726ZM51.89 23.816C52.37 23.816 52.79 23.6227 53.15 23.236C53.51 22.8427 53.69 22.396 53.69 21.896L53.66 14.296C53.66 13.7627 53.4933 13.3127 53.16 12.946C52.8267 12.5793 52.4033 12.396 51.89 12.396C51.39 12.396 50.9667 12.576 50.62 12.936C50.2667 13.296 50.09 13.7493 50.09 14.296V21.896C50.09 22.4293 50.2667 22.8827 50.62 23.256C50.9667 23.6293 51.39 23.816 51.89 23.816ZM60.5 26.486H63.22C63.28 26.486 63.31 26.446 63.31 26.366L60.41 12.686H57.29C57.21 12.686 57.17 12.646 57.17 12.566L57.19 9.876C57.19 9.80933 57.2233 9.776 57.29 9.776H66.41C66.49 9.776 66.53 9.80933 66.53 9.876V12.566C66.53 12.646 66.4967 12.686 66.43 12.686H63.29L60.41 26.366C60.41 26.446 60.44 26.486 60.5 26.486ZM66.02 26.366L69 9.876C69.0133 9.80933 69.0533 9.776 69.12 9.776H72.6C72.6667 9.776 72.7067 9.80933 72.72 9.876L75.58 26.366C75.5933 26.446 75.56 26.486 75.48 26.486H72.82C72.7533 26.486 72.7133 26.446 72.7 26.366L72.43 24.616H69.17L68.9 26.366C68.8867 26.446 68.8467 26.486 68.78 26.486H66.12C66.0533 26.486 66.02 26.446 66.02 26.366ZM70.73 15.296L69.65 22.046H71.95L70.97 15.296L70.82 14.416L70.73 15.296ZM81.04 26.486H78.33C78.2633 26.486 81.14 26.446 81.14 26.366L78.24 12.686H75.12C75.04 12.686 75 12.646 75 12.566L75.02 9.876C75.02 9.80933 75.0533 9.776 75.12 9.776H84.24C84.32 9.776 84.36 9.80933 84.36 9.876V12.566C84.36 12.646 84.3267 12.686 84.26 12.686H81.12L78.24 26.366C78.24 26.446 81.1 26.486 81.04 26.486ZM89.74 26.726C88.8733 26.726 88.0833 26.506 87.37 26.066C86.6567 25.626 86.0867 25.0427 85.66 24.316C85.2267 23.5827 85.01 22.776 85.01 21.896L85.03 14.296C85.03 13.416 85.2433 12.616 85.67 11.896C86.09 11.176 86.66 10.5993 87.38 10.166C88.1 9.73267 88.8867 9.516 89.74 9.516C90.6 9.516 91.3833 9.73267 92.09 10.166C92.79 10.5993 93.3533 11.176 93.78 11.896C94.2067 12.616 94.42 13.416 94.42 14.296L94.44 21.896C94.44 22.776 94.2267 23.5827 93.8 24.316C93.38 25.0427 92.8133 25.626 92.1 26.066C91.3867 26.506 90.6 26.726 89.74 26.726ZM89.74 23.816C90.22 23.816 90.64 23.6227 91 23.236C91.36 22.8427 91.54 22.396 91.54 21.896L91.51 14.296C91.51 13.7627 91.3433 13.3127 91.01 12.946C90.67 12.5793 90.2467 12.396 89.74 12.396C89.24 12.396 88.8133 12.576 88.46 12.936C88.1133 13.296 87.94 13.7493 87.94 14.296V21.896C87.94 22.4293 88.1133 22.8827 88.46 23.256C88.8133 23.6293 89.24 23.816 89.74 23.816ZM103.22 26.486H105.93C105.997 26.486 106.03 26.446 106.03 26.366L105.98 9.876C105.98 9.80933 105.947 9.776 105.88 9.776H101.03C100.17 9.776 99.377 9.98933 98.65 10.416C97.917 10.8427 97.337 11.4093 96.91 12.116C96.477 12.8293 96.26 13.636 96.26 14.536C96.26 15.1227 96.347 15.6527 96.52 16.126C96.7 16.5993 96.91 16.9993 97.15 17.326C97.39 17.6527 97.603 17.896 97.79 18.056C96.93 19.016 96.5 20.146 96.5 21.446L96.47 26.366C96.47 26.446 96.51 26.486 96.59 26.486H99.31C99.37 26.486 99.4 26.4627 99.4 26.416V21.446C99.4 20.866 99.603 20.366 100.01 19.946C100.423 19.5193 100.923 19.306 101.51 19.306H103.1L103.12 26.366C103.12 26.446 103.153 26.486 103.22 26.486ZM103.1 12.656V16.426H101.03C100.537 16.426 100.097 16.2427 99.71 15.876C99.33 15.5093 99.14 15.0627 99.14 14.536C99.14 14.0227 99.327 13.5827 99.7 13.216C100.08 12.8427 100.523 12.656 101.03 12.656H103.1Z" fill="#9B2226"/>
</svg>
